<svg height="490" width="490" xmlns="http://www.w3.org/2000/svg">
<rect width="100%" height="100%" x="0" y="0" style="fill:white;stroke:white;stroke-width:0"/>
<g style="fill:white;stroke:black;stroke-width:1">
<rect width="375" height="375" x="60" y="60"/>
<polygon points="10,95 10,85 30,85 40,95 60,95 40,95 30,105 10,105 10,95"/>
<text x="65" y="85" dominant-baseline="hanging" text-anchor="start" font-size="20" style="fill:black;stroke:black;stroke-width:0">code_i</text>
<polygon points="10,145 20,135 40,135 40,145 60,145 40,145 40,155 20,155 10,145"/>
<text x="65" y="135" dominant-baseline="hanging" text-anchor="start" font-size="20" style="fill:black;stroke:black;stroke-width:0">func_valid_o</text>
<polygon points="10,195 20,185 40,185 40,195 60,195 40,195 40,205 20,205 10,195"/>
<text x="65" y="185" dominant-baseline="hanging" text-anchor="start" font-size="20" style="fill:black;stroke:black;stroke-width:0">func_o</text>
<polygon points="10,245 20,235 40,235 40,245 60,245 40,245 40,255 20,255 10,245"/>
<text x="65" y="235" dominant-baseline="hanging" text-anchor="start" font-size="20" style="fill:black;stroke:black;stroke-width:0">rd_o</text>
<polygon points="10,295 20,285 40,285 40,295 60,295 40,295 40,305 20,305 10,295"/>
<text x="65" y="285" dominant-baseline="hanging" text-anchor="start" font-size="20" style="fill:black;stroke:black;stroke-width:0">rs1_o</text>
<polygon points="10,345 20,335 40,335 40,345 60,345 40,345 40,355 20,355 10,345"/>
<text x="65" y="335" dominant-baseline="hanging" text-anchor="start" font-size="20" style="fill:black;stroke:black;stroke-width:0">rs2_o</text>
<polygon points="10,395 20,385 40,385 40,395 60,395 40,395 40,405 20,405 10,395"/>
<text x="65" y="385" dominant-baseline="hanging" text-anchor="start" font-size="20" style="fill:black;stroke:black;stroke-width:0">imm_o</text>
<text x="245" y="450" dominant-baseline="hanging" text-anchor="middle" font-size="30" style="fill:black;stroke:black;stroke-width:0">instruction_decoder</text>
</g>
</svg>
