<svg height="440" width="440" xmlns="http://www.w3.org/2000/svg">
<rect width="100%" height="100%" x="0" y="0" style="fill:white;stroke:white;stroke-width:0"/>
<g style="fill:white;stroke:black;stroke-width:1">
<rect width="325" height="325" x="60" y="60"/>
<polygon points="10,95 10,85 30,85 40,95 60,95 40,95 30,105 10,105 10,95"/>
<text x="65" y="85" dominant-baseline="hanging" text-anchor="start" font-size="20" style="fill:black;stroke:black;stroke-width:0">code_i</text>
<polygon points="385,95 405,95 405,85 425,85 435,95 425,105 405,105 405,95 385,95"/>
<text x="380" y="85" dominant-baseline="hanging" text-anchor="end" font-size="20" style="fill:black;stroke:black;stroke-width:0">func_valid_o</text>
<polygon points="385,145 405,145 405,135 425,135 435,145 425,155 405,155 405,145 385,145"/>
<text x="380" y="135" dominant-baseline="hanging" text-anchor="end" font-size="20" style="fill:black;stroke:black;stroke-width:0">func_o</text>
<polygon points="385,195 405,195 405,185 425,185 435,195 425,205 405,205 405,195 385,195"/>
<text x="380" y="185" dominant-baseline="hanging" text-anchor="end" font-size="20" style="fill:black;stroke:black;stroke-width:0">rd_o</text>
<polygon points="385,245 405,245 405,235 425,235 435,245 425,255 405,255 405,245 385,245"/>
<text x="380" y="235" dominant-baseline="hanging" text-anchor="end" font-size="20" style="fill:black;stroke:black;stroke-width:0">rs1_o</text>
<polygon points="385,295 405,295 405,285 425,285 435,295 425,305 405,305 405,295 385,295"/>
<text x="380" y="285" dominant-baseline="hanging" text-anchor="end" font-size="20" style="fill:black;stroke:black;stroke-width:0">rs2_o</text>
<polygon points="385,345 405,345 405,335 425,335 435,345 425,355 405,355 405,345 385,345"/>
<text x="380" y="335" dominant-baseline="hanging" text-anchor="end" font-size="20" style="fill:black;stroke:black;stroke-width:0">imm_o</text>
<text x="220" y="400" dominant-baseline="hanging" text-anchor="middle" font-size="30" style="fill:black;stroke:black;stroke-width:0">instruction_decoder</text>
</g>
</svg>
