<svg height="390" width="390" xmlns="http://www.w3.org/2000/svg">
<rect width="100%" height="100%" x="0" y="0" style="fill:white;stroke:white;stroke-width:0"/>
<g style="fill:white;stroke:black;stroke-width:1">
<rect width="275" height="275" x="60" y="60"/>
<polygon points="10,95 10,85 30,85 40,95 60,95 40,95 30,105 10,105 10,95"/>
<text x="65" y="85" dominant-baseline="hanging" text-anchor="start" font-size="20" style="fill:black;stroke:black;stroke-width:0">imem_rdata_i</text>
<polygon points="10,145 20,135 40,135 40,145 60,145 40,145 40,155 20,155 10,145"/>
<text x="65" y="135" dominant-baseline="hanging" text-anchor="start" font-size="20" style="fill:black;stroke:black;stroke-width:0">imem_req_o</text>
<polygon points="10,195 20,185 40,185 40,195 60,195 40,195 40,205 20,205 10,195"/>
<text x="65" y="185" dominant-baseline="hanging" text-anchor="start" font-size="20" style="fill:black;stroke:black;stroke-width:0">pc_out</text>
<polygon points="10,245 20,235 40,235 40,245 60,245 40,245 40,255 20,255 10,245"/>
<text x="65" y="235" dominant-baseline="hanging" text-anchor="start" font-size="20" style="fill:black;stroke:black;stroke-width:0">instruction_o</text>
<polygon points="335,95 355,95 365,85 375,85 385,95 375,105 365,105 355,95 335,95"/>
<text x="330" y="85" dominant-baseline="hanging" text-anchor="end" font-size="20" style="fill:black;stroke:black;stroke-width:0">clk_i</text>
<polygon points="335,145 355,145 365,135 375,135 385,145 375,155 365,155 355,145 335,145"/>
<text x="330" y="135" dominant-baseline="hanging" text-anchor="end" font-size="20" style="fill:black;stroke:black;stroke-width:0">arst_ni</text>
<polygon points="335,245 355,245 365,235 375,235 385,245 375,255 365,255 355,245 335,245"/>
<text x="330" y="235" dominant-baseline="hanging" text-anchor="end" font-size="20" style="fill:black;stroke:black;stroke-width:0">valid_i</text>
<polygon points="335,295 355,295 365,285 385,285 385,295 385,305 365,305 355,295 335,295"/>
<text x="330" y="285" dominant-baseline="hanging" text-anchor="end" font-size="20" style="fill:black;stroke:black;stroke-width:0">imem_ack_i</text>
<text x="195" y="350" dominant-baseline="hanging" text-anchor="middle" font-size="30" style="fill:black;stroke:black;stroke-width:0">instruction_fetch</text>
</g>
</svg>
