<svg height="640" width="640" xmlns="http://www.w3.org/2000/svg">
<rect width="100%" height="100%" x="0" y="0" style="fill:white;stroke:white;stroke-width:0"/>
<g style="fill:white;stroke:black;stroke-width:1">
<rect width="525" height="525" x="60" y="60"/>
<polygon points="10,95 10,85 30,85 40,95 60,95 40,95 30,105 10,105 10,95"/>
<text x="65" y="85" dominant-baseline="hanging" text-anchor="start" font-size="20" style="fill:black;stroke:black;stroke-width:0">clk_i</text>
<polygon points="10,145 10,135 30,135 40,145 60,145 40,145 30,155 10,155 10,145"/>
<text x="65" y="135" dominant-baseline="hanging" text-anchor="start" font-size="20" style="fill:black;stroke:black;stroke-width:0">we_i</text>
<polygon points="10,195 10,185 30,185 40,195 60,195 40,195 30,205 10,205 10,195"/>
<text x="65" y="185" dominant-baseline="hanging" text-anchor="start" font-size="20" style="fill:black;stroke:black;stroke-width:0">w_addr_i</text>
<polygon points="10,245 10,235 30,235 40,245 60,245 40,245 30,255 10,255 10,245"/>
<text x="65" y="235" dominant-baseline="hanging" text-anchor="start" font-size="20" style="fill:black;stroke:black;stroke-width:0">w_data_i</text>
<polygon points="10,345 10,335 30,335 40,345 60,345 40,345 30,355 10,355 10,345"/>
<text x="65" y="335" dominant-baseline="hanging" text-anchor="start" font-size="20" style="fill:black;stroke:black;stroke-width:0">r0_addr_i</text>
<polygon points="10,395 20,385 40,385 40,395 60,395 40,395 40,405 20,405 10,395"/>
<text x="65" y="385" dominant-baseline="hanging" text-anchor="start" font-size="20" style="fill:black;stroke:black;stroke-width:0">r0_data_o</text>
<polygon points="10,495 10,485 30,485 40,495 60,495 40,495 30,505 10,505 10,495"/>
<text x="65" y="485" dominant-baseline="hanging" text-anchor="start" font-size="20" style="fill:black;stroke:black;stroke-width:0">r1_addr_i</text>
<polygon points="10,545 20,535 40,535 40,545 60,545 40,545 40,555 20,555 10,545"/>
<text x="65" y="535" dominant-baseline="hanging" text-anchor="start" font-size="20" style="fill:black;stroke:black;stroke-width:0">r1_data_o</text>
<text x="320" y="600" dominant-baseline="hanging" text-anchor="middle" font-size="30" style="fill:black;stroke:black;stroke-width:0">r2_w1_32b_memory_model</text>
</g>
</svg>
